# xmcd
#
# Track frame offsets: 
#        150
#        7104
#        44766
#        71412
#        112444
#        133504
#        165502
#        220138
#        251830
#        274132
#
# Disc length: 4077 seconds
#
# Revision: 0
# Processed by: cddbd v1.5.2PL0 Copyright (c) Steve Scherf et al.
# Submitted via: ExactAudioCopy v0.95b3
#
DISCID=9c0feb0a
DTITLE=Jimi Hendrix  - 3 Nights At Winterland 6 Cd Box Set - Disc 6 (2
DTITLE=006)  FLAC
DYEAR=1900
DGENRE=
TTITLE0=Intro
TTITLE1=Foxy Lady
TTITLE2=Manic Depression
TTITLE3=Sunshine Of Your Love
TTITLE4=Little Wing
TTITLE5=Spanish Castle Magic
TTITLE6=Red House
TTITLE7=Voodoo Child (Slight Return)
TTITLE8=(This Is America) Star Spangled Banner
TTITLE9=Purple Haze
EXTD=
EXTT0=
EXTT1=
EXTT2=
EXTT3=
EXTT4=
EXTT5=
EXTT6=
EXTT7=
EXTT8=
EXTT9=
PLAYORDER=
